name ../AP_Laxity/ap_15.mot
datacolumns   7
datarows 33
range   7.00000000 7.32000000
cursor 1.0 1.0 0.0
keys m_key
wrap
enforce_loops no
enforce_constraints no
calc_derivatives -1.000000
event_color 0.000000 0.000000 0.000000
endheader
            time femur_r_force_vx femur_r_force_vy femur_r_force_vz femur_r_force_px femur_r_force_py femur_r_force_pz 
      7.00000000     -86.79483510      23.25660597       0.00000000      -0.02255621      -0.51082145       0.00000000 
      7.01000000     -86.93977424      23.29544230       0.00000000      -0.02255621      -0.51082145       0.00000000 
      7.02000000     -87.08375244      23.33402114       0.00000000      -0.02255621      -0.51082145       0.00000000 
      7.03000000     -87.22676613      23.37234154       0.00000000      -0.02255621      -0.51082145       0.00000000 
      7.04000000     -87.36881175      23.41040255       0.00000000      -0.02255621      -0.51082145       0.00000000 
      7.05000000     -87.50988577      23.44820322       0.00000000      -0.02255621      -0.51082145       0.00000000 
      7.06000000     -87.64998467      23.48574261       0.00000000      -0.02255621      -0.51082145       0.00000000 
      7.07000000     -87.78910498      23.52301978       0.00000000      -0.02255621      -0.51082145       0.00000000 
      7.08000000     -87.92724323      23.56003382       0.00000000      -0.02255621      -0.51082145       0.00000000 
      7.09000000     -88.06439599      23.59678379       0.00000000      -0.02255621      -0.51082145       0.00000000 
      7.10000000     -88.20055985      23.63326878       0.00000000      -0.02255621      -0.51082145       0.00000000 
      7.11000000     -88.33573143      23.66948790       0.00000000      -0.02255621      -0.51082145       0.00000000 
      7.12000000     -88.46990736      23.70544023       0.00000000      -0.02255621      -0.51082145       0.00000000 
      7.13000000     -88.60308430      23.74112488       0.00000000      -0.02255621      -0.51082145       0.00000000 
      7.14000000     -88.73525895      23.77654097       0.00000000      -0.02255621      -0.51082145       0.00000000 
      7.15000000     -88.86642801      23.81168762       0.00000000      -0.02255621      -0.51082145       0.00000000 
      7.16000000     -88.99658823      23.84656395       0.00000000      -0.02255621      -0.51082145       0.00000000 
      7.17000000     -89.12573637      23.88116908       0.00000000      -0.02255621      -0.51082145       0.00000000 
      7.18000000     -89.25386922      23.91550218       0.00000000      -0.02255621      -0.51082145       0.00000000 
      7.19000000     -89.38098358      23.94956237       0.00000000      -0.02255621      -0.51082145       0.00000000 
      7.20000000     -89.50707631      23.98334881       0.00000000      -0.02255621      -0.51082145       0.00000000 
      7.21000000     -89.63214426      24.01686067       0.00000000      -0.02255621      -0.51082145       0.00000000 
      7.22000000     -89.75618433      24.05009711       0.00000000      -0.02255621      -0.51082145       0.00000000 
      7.23000000     -89.87919343      24.08305729       0.00000000      -0.02255621      -0.51082145       0.00000000 
      7.24000000     -90.00116849      24.11574042       0.00000000      -0.02255621      -0.51082145       0.00000000 
      7.25000000     -90.12210650      24.14814566       0.00000000      -0.02255621      -0.51082145       0.00000000 
      7.26000000     -90.24200444      24.18027221       0.00000000      -0.02255621      -0.51082145       0.00000000 
      7.27000000     -90.36085933      24.21211928       0.00000000      -0.02255621      -0.51082145       0.00000000 
      7.28000000     -90.47866821      24.24368608       0.00000000      -0.02255621      -0.51082145       0.00000000 
      7.29000000     -90.59542815      24.27497181       0.00000000      -0.02255621      -0.51082145       0.00000000 
      7.30000000     -90.71113626      24.30597571       0.00000000      -0.02255621      -0.51082145       0.00000000 
      7.31000000     -90.82578965      24.33669699       0.00000000      -0.02255621      -0.51082145       0.00000000 
      7.32000000     -90.93938547      24.36713490       0.00000000      -0.02255621      -0.51082145       0.00000000 
